<svg width="86" height="86" viewBox="0 0 86 86" fill="none" xmlns="http://www.w3.org/2000/svg">
<circle opacity="0.2" cx="43" cy="43" r="43" fill="#D35249"/>
<circle cx="43" cy="43" r="28.6667" fill="#D35249"/>
<path d="M46.1378 43L50.4956 38.6423C51.0303 38.1075 51.0303 37.2405 50.4956 36.7053L49.5271 35.7368C48.9923 35.202 48.1253 35.202 47.5901 35.7368L43.2323 40.0946L38.8745 35.7368C38.3397 35.202 37.4727 35.202 36.9375 35.7368L35.969 36.7053C35.4342 37.24 35.4342 38.1071 35.969 38.6423L40.3268 43L35.969 47.3578C35.4342 47.8926 35.4342 48.7596 35.969 49.2948L36.9375 50.2633C37.4723 50.7981 38.3397 50.7981 38.8745 50.2633L43.2323 45.9055L47.5901 50.2633C48.1248 50.7981 48.9923 50.7981 49.5271 50.2633L50.4956 49.2948C51.0303 48.7601 51.0303 47.893 50.4956 47.3578L46.1378 43Z" fill="white"/>
</svg>
