<svg width="31" height="31" viewBox="0 0 31 31" fill="none" xmlns="http://www.w3.org/2000/svg">
<path d="M13.4582 22.2084L23.7394 11.9272L21.6978 9.8855L13.4582 18.1251L9.30192 13.9688L7.26025 16.0105L13.4582 22.2084ZM15.4998 30.0834C13.4825 30.0834 11.5866 29.7006 9.81234 28.935C8.03803 28.1693 6.49463 27.1303 5.18213 25.8178C3.86963 24.5053 2.83057 22.9619 2.06494 21.1876C1.29932 19.4133 0.916504 17.5174 0.916504 15.5001C0.916504 13.4827 1.29932 11.5869 2.06494 9.81258C2.83057 8.03828 3.86963 6.49487 5.18213 5.18237C6.49463 3.86987 8.03803 2.83081 9.81234 2.06519C11.5866 1.29956 13.4825 0.916748 15.4998 0.916748C17.5172 0.916748 19.413 1.29956 21.1873 2.06519C22.9616 2.83081 24.505 3.86987 25.8175 5.18237C27.13 6.49487 28.1691 8.03828 28.9347 9.81258C29.7004 11.5869 30.0832 13.4827 30.0832 15.5001C30.0832 17.5174 29.7004 19.4133 28.9347 21.1876C28.1691 22.9619 27.13 24.5053 25.8175 25.8178C24.505 27.1303 22.9616 28.1693 21.1873 28.935C19.413 29.7006 17.5172 30.0834 15.4998 30.0834Z" fill="#12B76A"/>
</svg>
