<svg width="58" height="48" viewBox="0 0 58 48" fill="none" xmlns="http://www.w3.org/2000/svg">
<mask id="mask0_24_1718" style="mask-type:luminance" maskUnits="userSpaceOnUse" x="0" y="0" width="58" height="48">
<path d="M0 0H57.6287V47.5H0V0Z" fill="white"/>
</mask>
<g mask="url(#mask0_24_1718)">
<path d="M4.54963 13.75C4.54963 13.75 1.51654 13.75 1.51654 16.25V31.25C1.51654 33.75 4.54963 33.75 4.54963 33.75H13.6489L25.7812 43.75C25.7812 43.75 27.2978 45 28.8143 45H30.3309C30.3309 45 31.8474 45 31.8474 43.75V3.75C31.8474 3.75 31.8474 2.5 30.3309 2.5H28.8143C27.2978 2.5 25.7812 3.75 25.7812 3.75L13.6489 13.75H4.54963Z" fill="#29166F"/>
<path d="M13.6489 33.75L25.7812 43.75C25.7812 43.75 27.2978 45 28.8143 45H30.3309C30.3309 45 31.8474 45 31.8474 43.75V3.75C31.8474 3.75 31.8474 2.5 30.3309 2.5H28.8143C27.2978 2.5 25.7812 3.75 25.7812 3.75L13.6489 13.75V33.75Z" fill="#CCD6DD"/>
<path d="M37.4723 33.6987C37.1598 33.6988 36.8549 33.6194 36.5993 33.4712C36.3437 33.323 36.1499 33.1134 36.0444 32.871C35.9388 32.6286 35.9267 32.3652 36.0096 32.1169C36.0926 31.8686 36.2666 31.6474 36.5078 31.4837C37.8973 30.5467 39.0165 29.3667 39.7843 28.029C40.552 26.6914 40.9491 25.2297 40.9467 23.75C40.9504 22.2536 40.5449 20.7757 39.7604 19.4262C38.9759 18.0767 37.8325 16.8902 36.4153 15.955C36.2589 15.8524 36.1287 15.7254 36.0321 15.5811C35.9355 15.4369 35.8744 15.2784 35.8524 15.1147C35.8304 14.951 35.8478 14.7853 35.9037 14.6271C35.9597 14.469 36.053 14.3215 36.1783 14.1932C36.3036 14.0649 36.4584 13.9582 36.6339 13.8794C36.8094 13.8005 37.0021 13.7511 37.2008 13.7338C37.3996 13.7166 37.6005 13.7319 37.7921 13.7788C37.9836 13.8258 38.162 13.9035 38.317 14.0075C40.0881 15.1765 41.5169 16.6595 42.4972 18.3461C43.4776 20.0328 43.9843 21.8798 43.9798 23.75C43.9828 25.599 43.4867 27.4254 42.5275 29.0968C41.5683 30.7682 40.1699 32.2428 38.4338 33.4137C38.1636 33.5985 37.8234 33.6993 37.4723 33.6987Z" fill="#29166F"/>
</g>
</svg>
